<svg width="25" height="32" viewBox="0 0 25 32" fill="none" xmlns="http://www.w3.org/2000/svg">
<path d="M18.3754 11.2266C17.7209 11.1749 17.0179 11.3328 15.9412 11.748C16.0326 11.713 14.9144 12.1533 14.6017 12.2652C13.907 12.5098 13.3354 12.644 12.6947 12.644C12.0609 12.644 11.4769 12.5154 10.8043 12.2875C10.5898 12.2134 10.374 12.1338 10.1055 12.0275C9.99201 11.9828 9.57685 11.8151 9.48552 11.7801C8.58877 11.4251 8.08366 11.2909 7.66435 11.3021C6.07014 11.323 4.56035 12.2526 3.68436 13.793C1.89641 16.9297 2.88588 22.598 5.49999 26.4169C6.89216 28.4354 7.65328 29.1566 7.9605 29.1468C8.26772 29.1329 8.49329 29.0672 9.04406 28.8323L9.27517 28.7331C10.666 28.1334 11.6416 27.8692 13.1099 27.8692C14.5228 27.8692 15.4666 28.1292 16.802 28.7107L17.0345 28.8114C17.5853 29.049 17.7845 29.1021 18.1305 29.0937C18.6259 29.0867 19.2362 28.5108 20.591 26.5021C20.9619 25.9556 21.2899 25.3797 21.5736 24.7968C21.3871 24.6417 21.2062 24.4799 21.0311 24.3117C19.2473 22.5952 18.1443 20.2804 18.1139 17.4204C18.0841 15.3043 18.7727 13.2417 20.0651 11.576C19.5227 11.3738 18.953 11.2559 18.3754 11.2266ZM18.5899 8.43929C19.5697 8.50638 22.3762 8.80831 24.2029 11.5089C24.0534 11.5928 20.8484 13.4715 20.8816 17.3966C20.9314 22.0934 24.9502 23.6533 25 23.6701C24.9668 23.7875 24.3524 25.9011 22.8744 28.0817C21.5957 29.9772 20.2672 31.8559 18.1748 31.8894C16.1156 31.9397 15.4513 30.6649 13.1099 30.6649C10.7517 30.6649 10.0211 31.8559 8.07813 31.9397C6.05215 32.0068 4.52437 29.8933 3.22907 28.0146C0.588664 24.1566 -1.4207 17.145 1.28613 12.398C2.63125 10.0328 5.02256 8.53993 7.62976 8.50638C9.60591 8.45606 11.4824 9.8483 12.6947 9.8483C13.8903 9.8483 16.0326 8.238 18.5899 8.43929ZM17.0123 5.88963C15.9329 7.198 14.1727 8.22122 12.4622 8.08703C12.2297 6.30898 13.0932 4.44706 14.0896 3.28965C15.2023 1.98128 17.0622 1.00838 18.6066 0.941284C18.8058 2.75288 18.0918 4.58125 17.0123 5.88963Z" fill="#1C1C27"/>
</svg>
